<svg width="180" height="180" viewBox="0 0 180 180" fill="none" xmlns="http://www.w3.org/2000/svg">
<rect width="180" height="180" fill="#EEEEEE"/>
<path d="M50.3022 109.837C47.9077 106.365 46.7628 102.211 47.0481 98.0307V80.9694C46.746 76.7587 47.8736 72.5682 50.2557 69.0493C52.4097 66.3347 56.0899 64.985 61.2966 65.0001C66.5032 65.0153 70.0285 66.2058 71.8725 68.5716C74.121 71.5034 75.2181 75.1283 74.964 78.7856V82.7893H65.341V78.4444C65.328 77.3011 65.227 76.1605 65.0388 75.0321C64.9225 74.2153 64.5393 73.4572 63.9464 72.871C63.5804 72.5639 63.1555 72.3312 62.6965 72.1867C62.2375 72.0422 61.7537 71.9887 61.2733 72.0294C60.5835 71.9286 59.8786 72.0383 59.2548 72.3436C58.6309 72.6489 58.1183 73.1349 57.7867 73.7355C57.1756 75.333 56.9066 77.0365 56.9965 78.7401V100.396C56.8904 102.111 57.2011 103.826 57.903 105.401C58.2383 105.969 58.736 106.429 59.3347 106.724C59.9335 107.019 60.6073 107.136 61.2733 107.062C61.9278 107.152 62.5947 107.038 63.1791 106.736C63.7634 106.434 64.2353 105.959 64.5275 105.378C65.0897 103.778 65.3343 102.087 65.248 100.396V95.8468H74.871V99.7823C75.1543 103.494 74.1467 107.189 72.012 110.269C69.9665 112.772 66.4335 114 61.4128 114C56.3921 114 52.4639 112.635 50.3022 109.837Z" fill="#111111"/>
<path d="M87.4675 66H98.603L108 113H98.7439L97.076 102.615H89.2764L87.397 112.933H78L87.4675 66ZM96.0423 96.7067L93.0822 77.8171L90.1457 96.7067H96.0423Z" fill="#111111"/>
<path d="M114.556 73.0825H107V66H132V73.0825H124.537V113H114.533L114.556 73.0825Z" fill="#111111"/>
</svg>
